<?xml version="1.0" standalone="no"?>
<!DOCTYPE svg PUBLIC "-//W3C//DTD SVG 20010904//EN"
 "http://www.w3.org/TR/2001/REC-SVG-20010904/DTD/svg10.dtd">
<svg version="1.0" xmlns="http://www.w3.org/2000/svg"
 width="360.000000pt" height="382.000000pt" viewBox="0 0 360.000000 382.000000"
 preserveAspectRatio="xMidYMid meet">

<g transform="translate(0.000000,382.000000) scale(0.100000,-0.100000)"
fill="#000000" stroke="none">
<path d="M2745 3801 c-16 -4 -45 -15 -62 -25 l-33 -17 0 -226 0 -226 -202 7
c-365 11 -1507 9 -1583 -3 -386 -63 -636 -229 -769 -512 -56 -117 -68 -176
-73 -362 -8 -243 11 -318 103 -417 27 -29 69 -59 107 -76 54 -25 74 -29 152
-29 76 0 99 4 145 26 70 33 117 79 149 149 22 49 26 72 31 210 7 166 13 190
67 244 40 41 124 77 196 85 34 4 424 4 867 1 l805 -5 3 -212 2 -212 32 -22
c40 -29 129 -37 178 -16 46 19 672 635 708 696 32 54 36 137 10 186 -25 46
-663 717 -700 736 -42 21 -95 29 -133 20z"/>
<path d="M3147 1890 c-101 -26 -198 -104 -239 -195 -20 -44 -23 -71 -28 -221
-6 -191 -6 -192 -79 -228 -102 -51 -96 -51 -1001 -51 l-845 0 -5 190 -5 189
-40 23 c-47 27 -122 30 -169 8 -17 -8 -185 -169 -373 -358 -298 -299 -343
-347 -353 -385 -12 -45 -6 -101 16 -142 24 -47 676 -688 716 -705 52 -21 106
-19 158 7 l45 23 3 227 2 228 840 0 c907 0 975 3 1151 54 356 103 599 361 650
688 17 107 7 380 -16 443 -26 72 -112 155 -190 184 -67 25 -180 35 -238 21z"/>
</g>
</svg>
